<svg width="35" height="30" viewBox="0 0 35 30" fill="none" xmlns="http://www.w3.org/2000/svg">
<g clip-path="url(#clip0_9_17)">
<path d="M20.2756 0.960007C20.3245 0.977982 20.3734 1.01293 20.4214 1.01193C21.8019 0.968994 23.0936 1.3215 24.3373 1.88772C25.532 2.43196 26.7297 2.97221 27.7926 3.75812C29.6057 5.09926 31.152 6.67607 32.2499 8.6723C32.9421 9.93055 33.4856 11.2387 33.7533 12.6478C33.8762 13.2959 33.9251 13.96 33.9791 14.62C34.021 15.1313 34.045 15.6466 34.034 16.1599C33.994 17.9434 33.6344 19.661 32.9511 21.3137C32.3628 22.7378 31.4787 23.9451 30.3349 24.9617C28.393 26.6883 26.2113 27.9985 23.6959 28.7195C22.6001 29.034 21.4743 29.0939 20.3565 28.9991C18.0159 28.8003 15.9102 27.9435 14.0551 26.5075C13.266 25.8964 12.4738 25.2692 11.7845 24.5522C10.5179 23.2341 9.65779 21.6772 9.33313 19.8468C9.16931 18.9251 9.14134 17.9993 9.18629 17.0746C9.28019 15.1703 9.61783 13.3188 10.5369 11.6122C11.2131 10.358 12.0373 9.21254 13.0802 8.24089C14.4437 6.96966 16.069 6.18675 17.9001 5.8612C18.5234 5.75035 19.1697 5.67346 19.7991 5.70442C21.1816 5.77232 22.5761 5.82125 23.8887 6.34553C24.7208 6.67707 25.4351 7.20034 26.1234 7.75956C26.4101 7.99224 26.6878 8.2369 26.9605 8.48655C28.0503 9.48217 28.7316 10.7324 29.1262 12.1335C29.3619 12.9693 29.5627 13.8251 29.6676 14.6849C29.7785 15.5957 29.6556 16.5134 29.4049 17.4032C28.8814 19.2556 27.8895 20.8214 26.481 22.1216C25.6948 22.8476 24.8737 23.5327 23.8967 24C23.1285 24.3675 22.3214 24.5413 21.4673 24.5602C19.7471 24.5982 18.1318 24.2017 16.6224 23.4038C15.3138 22.7118 14.159 21.821 13.3589 20.5408C12.8304 19.695 12.5667 18.7733 12.6676 17.7776C12.7565 16.8959 13.0022 16.0471 13.3109 15.2162C13.8094 13.8751 14.3598 12.5599 15.2169 11.3965C16.0211 10.305 17.043 9.52711 18.4225 9.39929C19.869 9.26547 21.2745 9.48816 22.5352 10.2681C23.0356 10.5776 23.5321 10.9172 23.9587 11.3196C24.6899 12.0097 25.1584 12.8615 25.2833 13.8831C25.4661 15.377 25.2103 16.769 24.3413 18.0203C23.7089 18.932 22.7969 19.4174 21.744 19.655C20.9089 19.8438 20.0688 19.8588 19.2686 19.4973C18.0869 18.964 17.3137 18.0413 17.1469 16.776C16.998 15.6546 17.3247 14.5961 18.3676 13.95C19.1298 13.4776 19.9899 13.4357 20.833 13.6983C21.4893 13.903 21.766 14.4672 21.9038 15.0984C21.9668 15.385 22.0407 15.6816 21.8109 15.9712C21.6061 15.8743 21.3974 15.7764 21.1886 15.6776L21.2006 15.6037L21.5632 15.5667C21.5182 15.38 21.4823 15.2002 21.4303 15.0235C21.2995 14.5731 21.0118 14.2615 20.5423 14.1986C19.7461 14.0928 18.9739 14.1467 18.3556 14.7548C17.6453 15.4529 17.5065 16.7031 18.0299 17.555C18.5484 18.3988 19.2616 18.9141 20.2775 19.0149C22.1406 19.1997 24.0246 18.0023 24.4611 16.0161C24.6359 15.2202 24.6969 14.4243 24.4901 13.6234C24.2304 12.6188 23.5671 11.9198 22.7519 11.3406C21.9618 10.7794 21.0757 10.4189 20.1237 10.2731C18.9969 10.1003 17.8811 10.1233 16.9041 10.8423C16.1519 11.3965 15.5875 12.1165 15.134 12.9234C14.4048 14.2186 13.8713 15.5927 13.5077 17.0347C13.1541 18.4397 13.4258 19.676 14.3918 20.7775C15.6684 22.2325 17.2767 23.1132 19.1298 23.5656C19.7411 23.7154 20.3764 23.7973 21.0058 23.8382C22.2724 23.9201 23.4232 23.5596 24.4571 22.8176C25.9725 21.7302 27.3111 20.4799 28.1782 18.7992C28.6217 17.9384 28.9104 17.0247 29.0363 16.059C29.2211 14.634 28.8635 13.2969 28.4549 11.9547C28.0274 10.5517 27.2112 9.43424 26.0814 8.53149C25.532 8.0921 24.9696 7.6627 24.3802 7.28023C23.7289 6.85881 22.9837 6.67207 22.2185 6.55524C21.2655 6.40944 20.3095 6.34453 19.3455 6.33454C18.2597 6.32456 17.2408 6.5822 16.2448 6.97465C15.0341 7.45099 13.9682 8.15102 13.0822 9.10469C11.6127 10.6855 10.5309 12.484 10.1203 14.627C9.98444 15.336 9.95547 16.065 9.88854 16.787C9.85658 17.1365 9.82761 17.489 9.8356 17.8386C9.87556 19.7259 10.365 21.4685 11.5468 22.9744C12.303 23.9371 13.225 24.723 14.218 25.432C15.4247 26.2938 16.6953 27.0298 18.1448 27.3943C18.7811 27.5541 19.4324 27.6809 20.0848 27.7508C20.7261 27.8197 21.3824 27.8497 22.0247 27.8027C22.9267 27.7358 23.7848 27.4512 24.6249 27.1127C26.3861 26.4037 27.9674 25.4021 29.4179 24.1897C30.5127 23.275 31.4517 22.2275 32.0521 20.9133C32.5216 19.8857 32.8173 18.8062 33.0131 17.6938C33.1989 16.6362 33.2199 15.5707 33.1569 14.5122C33.055 12.7796 32.6485 11.1179 31.8523 9.55207C31.0402 7.95429 29.9233 6.61116 28.6157 5.40683C27.388 4.2764 25.9755 3.43956 24.4441 2.79945C23.7079 2.49188 22.9567 2.20927 22.1915 1.98558C21.717 1.84678 21.2056 1.8288 20.7091 1.77987C20.3495 1.74392 19.9859 1.72594 19.6242 1.73593C18.9939 1.75291 18.3626 1.78386 17.7332 1.8318C16.6244 1.91568 15.5535 2.17931 14.5276 2.60073C13.208 3.14297 11.9843 3.848 10.9354 4.83163C10.1303 5.58658 9.30217 6.31856 8.517 7.09449C7.13346 8.46159 6.31533 10.1443 5.92274 12.0316C5.76491 12.7896 5.683 13.5645 5.59309 14.3344C5.50119 15.1173 5.44824 15.9033 5.36833 16.6872C5.28342 17.523 5.27043 18.3558 5.43026 19.1837C5.44325 19.2516 5.47821 19.3145 5.51318 19.4064C5.8708 19.1358 6.09256 18.7763 6.28935 18.4098C6.48315 18.0503 6.63099 17.6648 6.79881 17.2913C6.8138 17.2584 6.82379 17.2214 6.84676 17.1955C7.00659 17.0097 7.85969 16.9508 7.97057 17.1585C8.05748 17.3213 8.02452 17.5699 7.98955 17.7717C7.88966 18.3369 7.39618 18.6564 7.0995 19.0998C6.82479 19.5102 6.46217 19.8747 6.08857 20.2043C5.76391 20.4909 5.22148 20.5039 4.96476 20.3211C4.24751 19.8108 3.5083 19.3275 2.81803 18.7833C2.26561 18.3489 1.76115 17.8505 1.25768 17.3592C1.11883 17.2244 1.05889 17.0107 0.963989 16.835V16.6722C1.12382 16.3666 1.75415 16.3227 2.01887 16.6003C2.47939 17.0846 2.96787 17.545 3.46434 17.9943C3.75903 18.261 4.08968 18.4877 4.4453 18.7643C4.4453 18.2071 4.43831 17.7187 4.4473 17.2314C4.4543 16.8719 4.46928 16.5104 4.50324 16.1529C4.58516 15.3061 4.66907 14.4583 4.77496 13.6144C4.85587 12.9683 4.94677 12.3212 5.07863 11.6851C5.28741 10.6745 5.70697 9.73382 6.16049 8.8151C6.65796 7.8065 7.37021 6.94569 8.18435 6.17377C8.65585 5.72639 9.14933 5.30198 9.64181 4.87757C10.1593 4.43019 10.6777 3.98281 11.2131 3.5564C12.0932 2.85537 13.0902 2.34708 14.1241 1.92267C15.4367 1.38342 16.8062 1.06886 18.2297 1.01393C18.3136 1.01094 18.3965 0.979979 18.4795 0.961005H20.2746L20.2756 0.960007Z" fill="black"/>
</g>
<defs>
<clipPath id="clip0_9_17">
<rect width="33.072" height="28.08" fill="white" transform="translate(0.963989 0.960007)"/>
</clipPath>
</defs>
</svg>
