<svg width="57" height="57" viewBox="0 0 57 57" fill="none" xmlns="http://www.w3.org/2000/svg">
<path d="M28.7822 29.0898C31.7378 29.0898 34.2988 28.1085 36.1125 26.1547C37.9162 24.2117 38.8447 21.4547 38.8447 18.1523C38.8447 14.8468 37.9122 12.263 36.0463 10.5211C34.1969 8.79451 31.6377 8.08984 28.7822 8.08984C25.9267 8.08984 23.3676 8.79451 21.5182 10.5211C19.6523 12.263 18.7197 14.8468 18.7197 18.1523C18.7197 21.4547 19.6482 24.2117 21.4519 26.1547C23.2657 28.1085 25.8267 29.0898 28.7822 29.0898Z" fill="#699BF7" stroke="black" stroke-width="2.625"/>
<path d="M28.7822 29.0898H28.7822L28.7361 29.0898C25.2201 29.0898 19.6565 29.0897 14.0561 32.809C9.12846 36.0815 8.36997 40.862 8.24473 45.24C8.18118 47.4615 10.0015 49.2148 12.1572 49.2148H45.4345C47.578 49.2148 49.3772 47.4876 49.3678 45.2991C49.3586 43.1286 49.2204 40.812 48.409 38.6331C47.5806 36.4084 46.0773 34.3947 43.4719 32.7856C37.4875 29.0898 32.3471 29.0898 28.8004 29.0898H28.7822H28.7822Z" fill="#699BF7" stroke="black" stroke-width="2.625"/>
<path d="M25.2822 17.7148V18.1523C25.2822 20.8872 26.1572 22.5273 28.7822 22.5273C31.4072 22.5273 32.2822 20.8872 32.2822 18.1523V17.7148" stroke="black" stroke-width="2.625" stroke-linecap="round"/>
</svg>
